<?xml version="1.0" encoding="utf-8"?>
<!-- Generator: Adobe Illustrator 24.1.2, SVG Export Plug-In . SVG Version: 6.00 Build 0)  -->
<svg version="1.1" id="Layer_1" xmlns="http://www.w3.org/2000/svg" xmlns:xlink="http://www.w3.org/1999/xlink" x="0px" y="0px"
	 viewBox="0 0 84.3 62.6" style="enable-background:new 0 0 84.3 62.6;" xml:space="preserve">
<style type="text/css">
	.st0{fill-rule:evenodd;clip-rule:evenodd;fill:#FFFFFF;}
	.st1{fill:#FFFFFF;}
</style>
<path class="st0" d="M17.5,6.9v9.6H9.1L17.5,6.9z M17.4,3.6c-0.4,0-0.7,0.2-1,0.5L5.3,16.9C5.1,17.2,5,17.5,5,17.8v39.6
	c0,0.7,0.6,1.3,1.3,1.3h38.2c0.7,0,1.3-0.6,1.3-1.3v-4c-0.7-0.4-1.6-0.7-2.6-1.1v3.8H7.6v-37h11.2c0.7,0,1.3-0.6,1.3-1.3V6.2h23.1
	v20.4c1-0.4,1.9-0.7,2.6-1.1V4.9c0-0.7-0.6-1.3-1.3-1.3l0,0L17.4,3.6L17.4,3.6z"/>
<path class="st1" d="M56.4,20.4c-3.6,0-2.5,6-14.5,9.4c-3.3,0.9-5,1.6-5,5.1v9.2c0,3.5,1.7,4.2,5,5.1c12,3.4,11,9.4,14.5,9.4H58
	c1.6,0,3-1.3,3-3V23.4c0-1.6-1.3-3-3-3H56.4L56.4,20.4z"/>
<path class="st1" d="M73.4,24c-1.9,0.1-2.9,2.2-1.7,3.7c2.2,3,3.6,7.4,3.6,11.9s-1.3,8.8-3.6,11.9c-0.8,1-0.5,2.5,0.5,3.3
	s2.5,0.5,3.3-0.5c2.9-4,4.5-9.2,4.5-14.7c0-5.4-1.6-10.6-4.5-14.6C75,24.3,74.2,23.9,73.4,24z"/>
<path class="st1" d="M67.1,29.9c-1.8,0-2.9,1.9-2,3.5c2.1,3.8,2.1,8.6,0,12.4c-0.7,1.1-0.2,2.6,0.9,3.2c1.2,0.6,2.6,0.2,3.2-1
	c2.8-5.2,2.8-11.7,0-16.9C68.7,30.3,67.9,29.9,67.1,29.9z"/>
<path class="st0" d="M14.8,25.7h16.6c0.8,0,1.4,0.6,1.4,1.4s-0.6,1.4-1.4,1.4H14.8c-0.8,0-1.4-0.6-1.4-1.4S14.1,25.7,14.8,25.7z"/>
<path class="st0" d="M14.8,32.8h16.6c0.8,0,1.4,0.6,1.4,1.4c0,0.8-0.6,1.4-1.4,1.4H14.8c-0.8,0-1.4-0.6-1.4-1.4
	C13.4,33.4,14.1,32.8,14.8,32.8z"/>
<path class="st0" d="M14.8,39.8h16.6c0.8,0,1.4,0.6,1.4,1.4c0,0.8-0.6,1.4-1.4,1.4H14.8c-0.8,0-1.4-0.6-1.4-1.4
	C13.4,40.4,14.1,39.8,14.8,39.8z"/>
<path class="st0" d="M14.8,46.8h8.3c0.8,0,1.4,0.6,1.4,1.4c0,0.8-0.6,1.4-1.4,1.4h-8.3c-0.8,0-1.4-0.6-1.4-1.4S14.1,46.8,14.8,46.8z
	"/>
</svg>
